<svg xmlns="http://www.w3.org/2000/svg" xmlns:xlink="http://www.w3.org/1999/xlink" viewBox="0 0 480 425"><defs><style>.cls-1{fill:none;stroke:#000;stroke-linecap:square;stroke-miterlimit:1;stroke-width:0.5px;}.cls-2,.cls-3{fill:#231f20;}.cls-2{stroke:#231f20;stroke-miterlimit:10;}.cls-3,.cls-4{isolation:isolate;font-size:14px;font-family:RobotoCondensed-Light, Roboto Condensed;font-weight:300;}.cls-4{fill:#77787b;}.cls-5{letter-spacing:-0.05em;}.cls-6{letter-spacing:-0.01em;}.cls-7{letter-spacing:-0.01em;}</style></defs><title>primeros-mapas</title><g id="Capa_2" data-name="Capa 2"><image width="1920" height="926" transform="translate(-395.8 2.61) scale(0.46)" xlink:href="../../../../../Downloads/time-hkg.png"/></g><g id="Layer_1" data-name="Layer 1"><path class="cls-1" d="M204.7,268.9a11.53,11.53,0,0,0-13.1-9.1"/><polygon points="206.3 266.8 205.8 266.5 204.6 268.7 202.6 267.4 202.3 267.8 204.8 269.4 206.3 266.8"/><path class="cls-2" d="M226.4,104.5a2.5,2.5,0,1,0,2.5,2.5,2.54,2.54,0,0,0-2.5-2.5"/><path class="cls-2" d="M268.5,248.6a2.5,2.5,0,1,0,2.5,2.5,2.48,2.48,0,0,0-2.5-2.5"/><path class="cls-2" d="M97.2,346.1a2.5,2.5,0,1,0,2.5,2.5,2.54,2.54,0,0,0-2.5-2.5"/><path class="cls-2" d="M312.7,129a2.5,2.5,0,1,0,2.5,2.5,2.48,2.48,0,0,0-2.5-2.5"/><text class="cls-3" transform="translate(231.78 111.82)">Beijing</text><text class="cls-4" transform="translate(422.78 155.03)"><tspan class="cls-5">T</tspan><tspan x="6.62" y="0">ok</tspan><tspan class="cls-6" x="19.56" y="0">y</tspan><tspan x="25.31" y="0">o</tspan></text><text class="cls-4" transform="translate(272.32 135.28)">Seoul</text><text class="cls-4" transform="translate(36.97 352.8)">Bangkok</text><text class="cls-3" transform="translate(118.95 262.67)">Hong <tspan class="cls-7" x="32.17" y="0">K</tspan><tspan x="39.67" y="0">ong</tspan></text></g></svg>