<svg xmlns="http://www.w3.org/2000/svg" xmlns:xlink="http://www.w3.org/1999/xlink" viewBox="0 0 480 425"><defs><style>.cls-1,.cls-3{fill:#231f20;}.cls-1{stroke:#231f20;stroke-miterlimit:10;}.cls-2{fill:none;stroke:#000;stroke-linecap:square;stroke-miterlimit:1;stroke-width:0.5px;}.cls-3,.cls-4{isolation:isolate;font-size:14px;font-family:RobotoCondensed-Light, Roboto Condensed;font-weight:300;}.cls-4{fill:#77787b;}.cls-5{letter-spacing:-0.05em;}.cls-6{letter-spacing:-0.01em;}.cls-7{letter-spacing:-0.01em;}</style></defs><title>primeros-mapas</title><g id="Capa_2" data-name="Capa 2"><image width="1920" height="926" transform="scale(0.46)" xlink:href="../../../../../Downloads/time-hkg.png"/></g><g id="Layer_1" data-name="Layer 1"><path class="cls-1" d="M270,250.6a2.5,2.5,0,1,0,2.5,2.5,2.48,2.48,0,0,0-2.5-2.5"/><path class="cls-2" d="M204.4,267.2a23.6,23.6,0,0,0-26.9-19.1"/><polygon points="206 265.1 205.6 264.9 204.3 267 202.3 265.6 202 266 204.5 267.7 206 265.1"/><path class="cls-1" d="M227.9,106.5a2.5,2.5,0,1,0,2.5,2.5,2.48,2.48,0,0,0-2.5-2.5"/><path class="cls-1" d="M418.4,150a2.5,2.5,0,1,0,2.5,2.5,2.48,2.48,0,0,0-2.5-2.5"/><path class="cls-1" d="M98.7,348.1a2.5,2.5,0,1,0,2.5,2.5,2.48,2.48,0,0,0-2.5-2.5"/><path class="cls-1" d="M314.2,131a2.5,2.5,0,1,0,2.5,2.5,2.48,2.48,0,0,0-2.5-2.5"/><text class="cls-3" transform="translate(235.31 113.82)">Beijing</text><text class="cls-4" transform="translate(38.49 354.8)">Bangkok</text><text class="cls-4" transform="translate(423.31 157.03)"><tspan class="cls-5">T</tspan><tspan x="6.62" y="0">ok</tspan><tspan class="cls-6" x="19.56" y="0">y</tspan><tspan x="25.31" y="0">o</tspan></text><text class="cls-3" transform="translate(100.63 249.96)">Hong <tspan class="cls-7" x="32.17" y="0">K</tspan><tspan x="39.67" y="0">ong</tspan></text></g></svg>