<?xml version="1.0" encoding="utf-8"?>
<!-- Generator: Adobe Illustrator 23.0.1, SVG Export Plug-In . SVG Version: 6.00 Build 0)  -->
<svg version="1.1" id="Layer_1" xmlns="http://www.w3.org/2000/svg" xmlns:xlink="http://www.w3.org/1999/xlink" x="0px" y="0px"
	 viewBox="0 0 339 491.8" style="enable-background:new 0 0 339 491.8;" xml:space="preserve">
<style type="text/css">
	.st0{fill:none;stroke:#C3C4C6;stroke-width:2;stroke-miterlimit:10;}
	.st1{font-family:'Roboto-Bold';}
	.st2{font-size:16px;}
	.st3{opacity:0.5;fill:#383838;enable-background:new    ;}
	.st4{font-size:14px;}
	.st5{opacity:0.5;}
	.st6{font-family:'RobotoCondensed-LightItalic';}
	.st7{font-size:10px;}
	.st8{opacity:0.5;enable-background:new    ;}
	.st9{font-family:'RobotoCondensed-Light';}
	.st10{font-size:12px;}
	.st11{fill:url(#SVGID_1_);}
	.st12{fill:none;stroke:#000000;stroke-width:0.5;stroke-linecap:square;stroke-miterlimit:1;}
	.st13{fill:#383838;}
</style>
<path class="st0" d="M190.4,183.6l5.1-2.1l1.8-2.1l2.6-4.1l2.1-3.2l2.6-0.5l2.9,0.2l4,2.4l5-2.6l6.9-2.6l2.1-4.1l3.7-1.5l4.7,1.5
	l4.5-0.3l4.5,0.9l7.2,1.9"/>
<g>
	<text transform="matrix(1 0 0 1 126.5872 241.5664)" class="st1 st2">AEROPUERTO</text>
</g>
<text transform="matrix(1 0 0 1 39.5901 31.8535)" class="st3 st1 st4">SALIDAS A PARTIR DE LAS 16:00 HORAS</text>
<circle cx="152.3" cy="251.9" r="3"/>
<g class="st5">
	<text transform="matrix(1 0 0 1 246.4213 422)" class="st6 st7">SUR DEL</text>
	<text transform="matrix(1 0 0 1 237.8213 434)" class="st6 st7">MAR DE CHINA</text>
</g>
<text transform="matrix(1 0 0 1 141.8778 155.9927)" class="st8 st9 st10">SHENZHEN</text>
<text transform="matrix(1 0 0 1 182.2999 218.7319)" class="st8 st1 st2">HONG KONG</text>
<linearGradient id="SVGID_1_" gradientUnits="userSpaceOnUse" x1="147.15" y1="6675.7998" x2="147.15" y2="6642" gradientTransform="matrix(1 0 0 1 0 -6200)">
	<stop  offset="0" style="stop-color:#FFFFFF"/>
	<stop  offset="1" style="stop-color:#FFFFFF;stop-opacity:0"/>
</linearGradient>
<rect x="85.2" y="442" class="st11" width="123.9" height="33.8"/>
<g>
	<g>
		<path class="st12" d="M156.4,264.2c3.8,21,23.6,35.1,44.8,31.8"/>
		<g>
			<polygon points="153.7,267.7 154.4,268 156.6,264.6 159.9,266.9 160.4,266.2 156.2,263.4 			"/>
		</g>
	</g>
</g>
<g>
	<text transform="matrix(1 0 0 1 208 301)" class="st13 st1 st4">Sin salidas</text>
</g>
</svg>
